HIERARCHY
ROOT pelvis
{
  OFFSET 0 100 0
  CHANNELS 6 Xposition Yposition Zposition Zrotation Xrotation Yrotation
  JOINT pelvis_right_femur
  {
    OFFSET -10.78128 -3.44521 -0.5502486
    CHANNELS 3 Zrotation Xrotation Yrotation
    JOINT right_femur_tibia
    {
      OFFSET -0.8047443 -44.0398 -0.1307829
      CHANNELS 3 Zrotation Xrotation Yrotation
      JOINT right_tibia_foot
      {
        OFFSET 3.006224 -47.83518 -5
        CHANNELS 3 Zrotation Xrotation Yrotation
        End Site
        {
          OFFSET 0 -5 15
        }
      }
    }
  }
  JOINT pelvis_left_femur
  {
    OFFSET 10.78128 -3.44521 -0.5502486
    CHANNELS 3 Zrotation Xrotation Yrotation
    JOINT left_femur_tibia
    {
      OFFSET 0.8047443 -44.0398 -0.1307829
      CHANNELS 3 Zrotation Xrotation Yrotation
      JOINT left_tibia_foot
      {
        OFFSET -4.370144 -48.10324 -4.275266
        CHANNELS 3 Zrotation Xrotation Yrotation
        End Site
        {
          OFFSET 0 -5 15
        }
      }
    }
  }
  JOINT pelvis_spine1
  {
    OFFSET 0 6.468898 -3.129235
    CHANNELS 3 Zrotation Xrotation Yrotation
    JOINT spine1
    {
      OFFSET 0 23.15396 4.99043
      CHANNELS 3 Zrotation Xrotation Yrotation
      JOINT spine2
      {
        OFFSET 0 20.79997 -5.064912
        CHANNELS 3 Zrotation Xrotation Yrotation
        JOINT neck
        {
          OFFSET 0 14.38658 9.616178
          CHANNELS 3 Zrotation Xrotation Yrotation
          End Site
          {
            OFFSET 0 20 0
          }
        }
      }
      JOINT right_manubrium
      {
        OFFSET -5.722621 16.35077 3.967754
        CHANNELS 3 Zrotation Xrotation Yrotation
        JOINT right_clavicle
        {
          OFFSET -13.16364 1.694482 -4.693211
          CHANNELS 3 Zrotation Xrotation Yrotation
          JOINT right_humerus
          {
            OFFSET -28.5034 -0.3100689 -2.792744
            CHANNELS 3 Zrotation Xrotation Yrotation
            JOINT right_radius
            {
              OFFSET -25.15693 0.02248979 -1.271978
              CHANNELS 3 Zrotation Xrotation Yrotation
              End Site
              {
                OFFSET -15 0 0
              }
            }
          }
        }
      }
      JOINT left_manubrium
      {
        OFFSET 5.722621 16.35077 3.967754
        CHANNELS 3 Zrotation Xrotation Yrotation
        JOINT left_clavicle
        {
          OFFSET 13.16364 1.694482 -4.693211
          CHANNELS 3 Zrotation Xrotation Yrotation
          JOINT left_humerus
          {
            OFFSET 29.39168 -1.063119 -2.237045
            CHANNELS 3 Zrotation Xrotation Yrotation
            JOINT left_radius
            {
              OFFSET 24.59957 -0.9528479 0.9047498
              CHANNELS 3 Zrotation Xrotation Yrotation
              End Site
              {
                OFFSET 15 -0 -0
              }
            }
          }
        }
      }
    }
  }
}
MOTION
Frames: 7
Frame Time: 0.0416666666667
0 103.5113 0 1.239469 -0.6171072 -0.02811838 3.434038 -17.12251 10.35439 -0 39.16359 -0 -5.003663 -17.52806 -3.12238 -7.563918 9.901365 -23.34611 -0 3.164875 -0 14.94342 -13.55381 30.45117 -4.357849 -3.908077 4.886165 2.714242 10.37632 -7.506691 1.465603 21.79753 6.701066 2.793264 -24.46053 10.00617 6.696254 -19.97657 11.82903 85.00245 38.07154 -17.39632 -0 0 16.25689 -6.581777 8.197943 4.186627 6.209441 -19.07973 -1.322895 -91.61203 20.83516 19.3233 0 0 -14.36038 15.84112 13.81304 -5.00083
0.3634929 103.6968 1.616316 1.037924 -0.06675206 -0.04748398 3.950959 -18.89528 10.33559 -0 37.61171 -0 -4.775833 -17.04167 -2.925042 -7.475423 9.861604 -22.88356 -0 3.69858 -0 15.03829 -13.95472 29.9982 -4.214149 -3.701273 4.996312 2.832787 10.37239 -7.567934 1.521941 21.53405 6.662446 2.757691 -24.81917 10.10507 6.705452 -19.96623 11.82887 85.00163 38.21191 -17.50552 -0 0 16.28647 -6.318631 8.357717 4.053434 6.3038 -19.21836 -1.242707 -91.43598 20.39274 19.29487 0 0 -14.8979 16.38508 13.38093 -5.464263
0.7451482 103.8451 3.518163 0.6726884 0.4259293 0.02462283 4.449425 -21.36745 9.442906 -0 35.51723 -0 -5.087872 -14.56607 -2.359894 -7.21041 9.899758 -21.94019 -0 4.645981 -0 14.01131 -14.95488 28.43925 -3.829137 -3.23771 4.88751 2.849295 10.43783 -7.589948 1.497449 21.31911 6.78435 2.945364 -25.21811 10.04055 6.57203 -19.92824 11.89337 85.31088 37.76186 -17.90529 -0 0 15.86797 -6.944615 8.626331 4.408123 6.404329 -19.72317 -1.512729 -91.26981 20.40255 19.40765 0 0 -16.02003 16.12612 13.41274 -4.820368
1.133743 103.9105 5.778586 0.3479669 1.118158 0.1748337 5.05056 -24.26588 8.576048 -0 32.10587 -0 -5.184654 -12.48145 -1.862176 -6.985561 10.13629 -20.79764 -0 5.786257 -0 13.22754 -16.02331 26.92219 -3.513084 -2.837154 4.859555 2.938085 10.4298 -7.676635 1.504878 21.05126 6.817314 3.043816 -25.60127 9.982127 6.361044 -19.78765 11.88176 85.7103 37.40952 -18.47751 -0 0 15.30783 -7.348073 8.889147 4.595683 6.595013 -20.29985 -1.67159 -90.81853 20.17507 19.08574 0 0 -17.59297 16.19173 13.1859 -4.614333
1.508287 103.897 8.30194 0.1340656 1.95259 0.3539536 5.723587 -26.68129 8.339775 -0 28.48048 -0 -4.932082 -11.89481 -1.729598 -6.877322 10.63115 -20.10622 -0 6.978746 -0 12.64103 -17.04485 25.96611 -3.388897 -2.631532 4.93933 3.134723 10.17711 -7.835169 1.559474 20.8103 6.750586 3.02619 -25.96631 9.986564 6.251469 -19.53158 11.74887 85.98121 37.52369 -19.13276 -0 0 14.91179 -6.938213 8.951901 4.352262 6.724406 -20.57683 -1.552945 -90.56598 20.57078 18.81671 0 0 -19.04307 15.80739 13.00995 -3.97783
1.871173 103.815 11.03019 -0.01740251 2.767414 0.5453605 6.319945 -28.58188 8.314743 -0 25.27165 -0 -4.624487 -11.75508 -1.677789 -6.835984 11.06279 -19.63244 -0 8.021093 -0 12.23316 -17.86631 25.29129 -3.350247 -2.53279 5.055971 3.340766 9.907262 -8.003101 1.600899 20.58609 6.686796 3.000348 -26.3152 10.00238 6.221252 -19.29348 11.61483 86.17553 37.87138 -19.73873 -0 0 14.61351 -6.378691 8.976669 4.040914 6.819659 -20.74913 -1.358033 -90.39834 21.03109 18.63435 0 0 -20.27384 15.40994 12.83163 -3.364966
2.224908 103.6381 14.0273 -0.1933214 3.352182 0.7715489 6.660272 -30.36256 7.705989 -0 22.16633 -0 -4.698495 -10.6318 -1.44281 -6.727529 11.51239 -18.93346 -0 8.943093 -0 11.34783 -18.74765 24.15191 -3.215337 -2.367816 5.017697 3.439638 9.731612 -8.123762 1.581341 20.45758 6.712769 3.085985 -26.53994 9.903166 6.064473 -19.05874 11.52616 86.55274 37.78892 -20.40914 -0 0 14.03127 -6.510168 9.049874 4.087999 6.936573 -21.13512 -1.396136 -90.12179 21.49029 18.33117 0 0 -21.6648 14.81642 12.87479 -2.512765
